<svg id="Layer_1" data-name="Layer 1" xmlns="http://www.w3.org/2000/svg" viewBox="0 0 322.21 278.27"><defs><style>.cls-1{opacity:0.3;}.cls-2{fill:#c4c4c4;}.cls-3{fill:#2643e9;}</style></defs><g id="Layer_2" data-name="Layer 2" class="cls-1"><g id="Layer_1-2" data-name="Layer 1-2"><g id="triangle36"><path class="cls-2" d="M322,30.62,282.73,10.94l10.6-8.6L322.07,21.5v-.37L293.42,2a.17.17,0,0,0-.21,0l-10.87,8.82a.15.15,0,0,0,0,.13.15.15,0,0,0,.08.11L322,31Z" transform="translate(0.02 0)"/></g><g id="triangle36-2"><path class="cls-2" d="M321.87,57.55,283.06,11.44,322,31v-.34L282.53,10.84a.18.18,0,0,0-.2,0,.14.14,0,0,0,0,.19l39.55,47Z" transform="translate(0.02 0)"/></g><g id="triangle36-3"><path class="cls-2" d="M161.68,277.69l52.86-21.61L219.72,278h.33l-5.24-22.12a.16.16,0,0,0-.08-.1.17.17,0,0,0-.14,0l-53.7,21.94Z" transform="translate(0.02 0)"/></g><g id="triangle36-4"><polygon class="cls-2" points="320.71 268.22 286.03 278.26 287.1 278.27 320.7 268.54 320.71 268.22"/></g><g id="triangle36-5"><path class="cls-2" d="M322.08,21.13,293.8,2.29l28.39-.86v-.3L293.31,2a.16.16,0,0,0-.15.11.13.13,0,0,0,.06.16L322.07,21.5Z" transform="translate(0.02 0)"/></g><g id="triangle36-6"><path class="cls-2" d="M321.47,128.48l-38.27-2,30.92-17,7.43,5.24v-.37l-7.32-5.17a.19.19,0,0,0-.18,0l-31.47,17.3a.14.14,0,0,0-.07.16.15.15,0,0,0,.15.12l38.81,2.07Z" transform="translate(0.02 0)"/></g><g id="triangle36-7"><path class="cls-2" d="M37.48,277.11l6.31-9.74,1.27,9.78h.33l-1.34-10.26a.16.16,0,0,0-.12-.13.2.2,0,0,0-.18.07L37.1,277.11Z" transform="translate(0.02 0)"/></g><g id="triangle36-8"><polygon class="cls-2" points="320.71 268.22 286.03 278.26 287.1 278.27 320.7 268.54 320.71 268.22"/><path class="cls-2" d="M320.69,266.6l-36.35-8.18a.17.17,0,0,0-.2.1l-5.5,19.71H279l5.44-19.49,36.27,8.17Z" transform="translate(0.02 0)"/></g><g id="triangle36-9"><path class="cls-2" d="M321.08,198.33l-19.86,10.34-15-3.64,34.89-12.11v-.32l-35.48,12.32a.15.15,0,0,0-.11.15.16.16,0,0,0,.12.13L301.2,209h.08L321,198.72Z" transform="translate(0.02 0)"/></g><g id="triangle36-10"><path class="cls-2" d="M220.05,278l-5.17-21.86,20.06,6.45L226.27,278h.37l8.68-15.45a.13.13,0,0,0,0-.12.15.15,0,0,0-.1-.09l-20.51-6.6a.11.11,0,0,0-.17.14l5.23,22Z" transform="translate(0.02 0)"/></g><g id="triangle36-11"><path class="cls-2" d="M226.64,278l8.54-15.22,10.63,15.31h.39L235.31,262.4a.17.17,0,0,0-.15-.07.16.16,0,0,0-.14.08L226.27,278Z" transform="translate(0.02 0)"/></g><g id="triangle36-12"><path class="cls-2" d="M245.81,278.08h.39l-10.59-15.26,36.22,15.38h.78l-37.37-15.86a.17.17,0,0,0-.19,0,.15.15,0,0,0,0,.18Z" transform="translate(0.02 0)"/></g><g id="triangle36-13"><path class="cls-2" d="M235.1,262.61l36.73,15.59h.78l-36.82-15.63,48.3-3.84-5.45,19.5H279l5.48-19.63a.12.12,0,0,0,0-.14h-.14l-49.13,3.91a.16.16,0,0,0-.15.13A.15.15,0,0,0,235.1,262.61Z" transform="translate(0.02 0)"/></g><g id="triangle36-14"><path class="cls-2" d="M45.39,277.15,44.1,267.2l17.08,10h.61L44,266.78a.19.19,0,0,0-.18,0,.13.13,0,0,0-.07.14l1.33,10.23Z" transform="translate(0.02 0)"/></g><g id="triangle36-15"><path class="cls-2" d="M154.52,176.67h-.08a.16.16,0,0,1-.08-.1l-1.69-7.4a.13.13,0,0,1,0-.12.24.24,0,0,1,.11-.06l41.78-4.39a.15.15,0,0,1,.18.11h0a.14.14,0,0,1-.1.17h0l-40.09,11.79ZM153,169.25l1.62,7.07L193,165.05Z" transform="translate(0.02 0)"/></g><g id="triangle36-16"><path class="cls-2" d="M22,277l2.15-21.35L43.67,267,37.1,277.11h.38L44,267a.14.14,0,0,0,0-.19h0L24.14,255.31a.15.15,0,0,0-.16,0,.14.14,0,0,0-.09.12L21.71,277Z" transform="translate(0.02 0)"/></g><g id="triangle36-17"><path class="cls-2" d="M43.89,267.06H43.8L24,255.56a.15.15,0,0,1-.07-.12.17.17,0,0,1,.07-.13l33.87-21.57a.18.18,0,0,1,.2,0,.17.17,0,0,1,0,.17l-14,33A.17.17,0,0,1,44,267ZM24.35,255.43l19.46,11.25,13.77-32.41Z" transform="translate(0.02 0)"/></g><g id="triangle36-18"><path class="cls-2" d="M104,267.93h0l-60.14-.87a.17.17,0,0,1-.13-.07.12.12,0,0,1,0-.14l14-33a.14.14,0,0,1,.11-.09.19.19,0,0,1,.15,0l46.11,33.91a.17.17,0,0,1,0,.17A.22.22,0,0,1,104,267.93Zm-59.9-1.17,59.43.86L58,234.11Z" transform="translate(0.02 0)"/></g><g id="triangle36-19"><path class="cls-2" d="M61.18,277.22h.61L44.46,267.06l59,.86-18.85,9.41h.68l18.87-9.42a.14.14,0,0,0,.08-.17.17.17,0,0,0-.16-.11l-60.14-.87h0a.18.18,0,0,0-.16.1.14.14,0,0,0,.07.17Z" transform="translate(0.02 0)"/></g><g id="triangle36-20"><path class="cls-2" d="M85.24,277.33l18.33-9.15-6.25,9.21h.39l6.46-9.54a.15.15,0,0,0,0-.18.15.15,0,0,0-.2,0l-19.39,9.68Z" transform="translate(0.02 0)"/></g><g id="triangle36-21"><path class="cls-2" d="M97.71,277.39l6.4-9.44,36.42,9.64h1.19l-37.64-10a.18.18,0,0,0-.19.07l-6.57,9.69Z" transform="translate(0.02 0)"/></g><g id="triangle36-22"><path class="cls-2" d="M264.13,190.18h-.06l-69.52-25.3a.17.17,0,0,1-.1-.12.13.13,0,0,1,.06-.14l35.19-26.29a.17.17,0,0,1,.14,0,.12.12,0,0,1,.11.07L264.28,190a.15.15,0,0,1,0,.18A.2.2,0,0,1,264.13,190.18Zm-69.2-25.5,68.81,25-34-51.07Z" transform="translate(0.02 0)"/></g><g id="triangle36-23"><path class="cls-2" d="M264.13,190.18a.19.19,0,0,1-.14-.07l-34.32-51.6a.13.13,0,0,1,0-.12.2.2,0,0,1,.09-.09l28.84-11.69a.19.19,0,0,1,.15,0,.13.13,0,0,1,.08.12L264.3,190a.13.13,0,0,1-.11.15ZM230.05,138.5l33.87,50.91L258.5,127Z" transform="translate(0.02 0)"/></g><g id="triangle36-24"><path class="cls-2" d="M264.13,190.18h0A.17.17,0,0,1,264,190l-5.48-63.29a.11.11,0,0,1,0-.11h.12l24-.18a.35.35,0,0,1,.14.06.11.11,0,0,1,0,.13l-18.53,63.47A.15.15,0,0,1,264.13,190.18Zm-5.3-63.29,5.39,62.26,18.23-62.44Z" transform="translate(0.02 0)"/></g><g id="triangle36-25"><path class="cls-2" d="M321.11,192.6l-35.4,12.29-21.15-14.75,56.6-5.5v-.3l-57,5.54a.15.15,0,0,0-.14.11.15.15,0,0,0,0,.16l21.56,15h.15l35.37-12.28Z" transform="translate(0.02 0)"/></g><g id="triangle36-26"><path class="cls-2" d="M258.65,126.89a.16.16,0,0,1-.15-.09.12.12,0,0,1,0-.16l23.91-20.74a.19.19,0,0,1,.18,0,.14.14,0,0,1,.1.13l.1,20.55a.17.17,0,0,1-.16.15l-24,.18Zm23.75-20.53-23.34,20.23,23.44-.18Z" transform="translate(0.02 0)"/></g><g id="triangle36-27"><path class="cls-2" d="M321.7,88.68l-39,17.09-.11-94.36L321.87,58v-.49L282.58,10.88a.17.17,0,0,0-.18-.05.15.15,0,0,0-.11.14l.11,95a.16.16,0,0,0,.08.13h.16L321.69,89Z" transform="translate(0.02 0)"/></g><g id="triangle36-28"><path class="cls-2" d="M282.66,126.71h-.07a.14.14,0,0,1-.09-.13L282.4,106a.14.14,0,0,1,.06-.11.24.24,0,0,1,.12,0l31.57,3.25a.16.16,0,0,1,.14.12.14.14,0,0,1-.07.16l-31.47,17.3Zm.07-20.53.1,20.11,30.81-16.93Z" transform="translate(0.02 0)"/></g><g id="triangle36-29"><path class="cls-2" d="M321.63,101l-7.57,8.14L283.15,106l38.54-17v-.33l-39.21,17.2a.15.15,0,0,0-.09.16.17.17,0,0,0,.15.12l31.57,3.25h0a.15.15,0,0,0,.13,0l7.36-7.94Z" transform="translate(0.02 0)"/></g><g id="triangle36-30"><path class="cls-2" d="M321.56,112.44l-7.17-3.23,7.23-7.79V101L314,109.17a.13.13,0,0,0,0,.12.17.17,0,0,0,.09.11l7.5,3.38Z" transform="translate(0.02 0)"/></g><g id="triangle36-31"><path class="cls-2" d="M321.55,114.31l-6-4.25,6,2.72v-.34l-7.35-3.31a.17.17,0,0,0-.22.05.15.15,0,0,0,0,.2l7.52,5.3Z" transform="translate(0.02 0)"/></g><g id="triangle36-32"><path class="cls-2" d="M104,267.92l36.54,9.67h1.19l-37.25-9.85,66.08-30.83-16,40.74h.34l16.07-41a.14.14,0,0,0-.05-.16.19.19,0,0,0-.18,0L104,267.64a.15.15,0,0,0-.09.15A.14.14,0,0,0,104,267.92Z" transform="translate(0.02 0)"/></g><g id="triangle36-33"><path class="cls-2" d="M154.93,277.65l16-40.84,43.33,19.06-53.38,21.81h.79l53-21.68a.17.17,0,0,0,.1-.13.15.15,0,0,0-.1-.14l-43.81-19.27a.29.29,0,0,0-.13,0,.2.2,0,0,0-.09.09l-16.1,41.1Z" transform="translate(0.02 0)"/></g><g id="triangle36-34"><path class="cls-2" d="M173.7,189.76a.17.17,0,0,1-.1,0l-19.18-13.09a.14.14,0,0,1,0-.19.16.16,0,0,1,.2-.07l30.45,10a.14.14,0,0,1,0,.28l-11.27,3.06ZM155.5,177l18.24,12.45,10.71-2.9Z" transform="translate(0.02 0)"/></g><g id="triangle36-35"><path class="cls-2" d="M185,186.71h-.06l-30.44-10a.16.16,0,0,1-.11-.15.15.15,0,0,1,.11-.14l40.09-11.78a.11.11,0,1,1,.17.15l-9.65,21.84A.15.15,0,0,1,185,186.71Zm-30-10.19,29.85,9.85L194.3,165Z" transform="translate(0.02 0)"/></g><g id="triangle36-36"><path class="cls-2" d="M170.84,236.75h0a.15.15,0,0,1-.14-.16h0l2.86-47a.16.16,0,0,1,.12-.13l11.26-3.05a.15.15,0,0,1,.16,0,.14.14,0,0,1,0,.15l-14.13,50a.16.16,0,0,1-.1.19Zm3-47-2.76,45.36,13.64-48.31Z" transform="translate(0.02 0)"/></g><g id="triangle36-37"><path class="cls-2" d="M264.13,190.18h0L185,186.71a.17.17,0,0,1-.13-.07.12.12,0,0,1,0-.14l9.64-21.83a.24.24,0,0,1,.09-.08h.12l69.53,25.3a.16.16,0,1,1-.11.29Zm-78.92-3.76,78,3.42L194.7,164.92Z" transform="translate(0.02 0)"/></g><g id="triangle36-38"><path class="cls-2" d="M194.61,164.88h-.06a.17.17,0,0,1-.1-.12l-8.12-56.95a.14.14,0,0,1,.08-.14.21.21,0,0,1,.19,0l43.31,30.65a.13.13,0,0,1,.06.11.14.14,0,0,1-.06.12l-35.19,26.29A.15.15,0,0,1,194.61,164.88Zm-7.9-56.75,8,56.31,34.81-26Z" transform="translate(0.02 0)"/></g><g id="triangle36-39"><path class="cls-2" d="M229.81,138.58h-.1L186.39,107.9a.16.16,0,0,1-.06-.13.15.15,0,0,1,.1-.12L224.16,92.3a.2.2,0,0,1,.15,0,.15.15,0,0,1,.08.11l5.58,46a.12.12,0,0,1-.08.14A.11.11,0,0,1,229.81,138.58Zm-43-30.76L229.6,138.1l-5.51-45.44Z" transform="translate(0.02 0)"/></g><g id="triangle36-40"><path class="cls-2" d="M224.23,92.59h0a.16.16,0,0,1-.13-.12l-18-67.78a.11.11,0,0,1,0-.11.12.12,0,0,1,.11-.07l76.23-13.69a.19.19,0,0,1,.17.07.15.15,0,0,1,0,.16L224.37,92.52A.21.21,0,0,1,224.23,92.59ZM206.42,24.78,224.3,92.07l57.8-80.89Z" transform="translate(0.02 0)"/></g><g id="triangle36-41"><path class="cls-2" d="M229.81,138.58h-.08a.12.12,0,0,1-.08-.11l-5.59-46a.16.16,0,0,1,.1-.16.21.21,0,0,1,.19,0l34.42,34.3a.15.15,0,0,1,0,.13.14.14,0,0,1-.09.11l-28.84,11.69Zm-5.36-45.7,5.5,45.33,28.43-11.52Z" transform="translate(0.02 0)"/></g><g id="triangle36-42"><path class="cls-2" d="M258.65,126.89h0a.21.21,0,0,1-.11,0l-34.42-34.3a.15.15,0,0,1,0-.18.2.2,0,0,1,.18-.07l58.34,13.58a.14.14,0,0,1,.11.1.14.14,0,0,1,0,.15L258.83,126.9A.15.15,0,0,1,258.65,126.89ZM224.72,92.71l33.94,33.82,23.58-20.44Z" transform="translate(0.02 0)"/></g><g id="triangle36-43"><path class="cls-2" d="M282.56,106.16h0L224.19,92.58a.16.16,0,0,1-.12-.09.15.15,0,0,1,0-.13l58.22-81.47a.17.17,0,0,1,.19-.06.14.14,0,0,1,.12.14l.11,95a.14.14,0,0,1-.06.12A.16.16,0,0,1,282.56,106.16ZM224.49,92.35l57.91,13.47-.11-94.35Z" transform="translate(0.02 0)"/></g><g id="triangle36-44"><path class="cls-2" d="M170.84,236.75a.18.18,0,0,1-.12-.05.15.15,0,0,1,0-.13l14.13-50a.17.17,0,0,1,.1-.1.2.2,0,0,1,.15,0L245,224a.17.17,0,0,1,.07.16.16.16,0,0,1-.14.11l-74.06,12.52Zm14.23-49.95-14,49.61L244.49,224Z" transform="translate(0.02 0)"/></g><g id="triangle36-45"><path class="cls-2" d="M214.65,256h-.07l-43.81-19.27a.15.15,0,0,1-.09-.16.16.16,0,0,1,.13-.12l74.06-12.52a.2.2,0,0,1,.18.07.14.14,0,0,1,0,.17L214.78,256A.15.15,0,0,1,214.65,256Zm-43.29-19.35,43.25,19,29.86-31.38Z" transform="translate(0.02 0)"/></g><g id="triangle36-46"><path class="cls-2" d="M244.9,224.23a.14.14,0,0,1-.09,0L184.88,186.7a.14.14,0,0,1-.07-.17.19.19,0,0,1,.17-.1l79.16,3.47a.16.16,0,0,1,.14.08.12.12,0,0,1,0,.14l-19.23,34a.15.15,0,0,1-.11.08Zm-59.36-37.5,59.3,37.14,19-33.7Z" transform="translate(0.02 0)"/></g><g id="triangle36-47"><path class="cls-2" d="M235.17,262.62h-.06L214.6,256a.16.16,0,0,1-.11-.1.11.11,0,0,1,0-.13L244.78,224a.18.18,0,0,1,.2,0,.14.14,0,0,1,.09.17l-9.74,38.38a.16.16,0,0,1-.08.1Zm-20.24-6.81,20.12,6.46,9.55-37.63Z" transform="translate(0.02 0)"/></g><g id="triangle36-48"><path class="cls-2" d="M235.17,262.62a.17.17,0,0,1-.12-.05.15.15,0,0,1,0-.13l9.73-38.39A.17.17,0,0,1,245,224l39.4,34.47a.15.15,0,0,1,0,.16.21.21,0,0,1-.14.1l-49.14,3.91ZM245,224.38l-9.62,37.92,48.55-3.86Z" transform="translate(0.02 0)"/></g><g id="triangle36-49"><path class="cls-2" d="M244.9,224.23a.21.21,0,0,1-.11,0,.14.14,0,0,1,0-.17L264,190a.12.12,0,0,1,.11-.07.17.17,0,0,1,.14,0l21.55,15a.16.16,0,0,1,.06.13.16.16,0,0,1-.09.12l-40.78,19A.11.11,0,0,1,244.9,224.23Zm19.29-34-18.91,33.48L285.38,205Z" transform="translate(0.02 0)"/></g><g id="triangle36-50"><path class="cls-2" d="M284.3,258.71a.21.21,0,0,1-.11,0l-39.4-34.48a.17.17,0,0,1,0-.14.22.22,0,0,1,.12-.11l56.33-15.26a.17.17,0,0,1,.17,0,.14.14,0,0,1,0,.15l-17,49.73a.15.15,0,0,1-.12.1Zm-39.08-34.55,39,34.12L301,209.05Z" transform="translate(0.02 0)"/></g><g id="triangle36-51"><path class="cls-2" d="M244.9,224.23a.16.16,0,0,1-.15-.09.15.15,0,0,1,.08-.19l40.78-19h.12l15.55,3.76a.17.17,0,0,1,.13.14.16.16,0,0,1-.12.15L245,224.23A.33.33,0,0,1,244.9,224.23Zm40.8-19-39.14,18.26,54.08-14.65Z" transform="translate(0.02 0)"/></g><g id="triangle36-52"><path class="cls-2" d="M1.62,243.21a.15.15,0,0,1-.15-.1.14.14,0,0,1,.07-.18l46.65-24.76h.13a.16.16,0,0,1,.1.08l9.65,15.56a.12.12,0,0,1,0,.14A.18.18,0,0,1,58,234L1.7,243.2ZM48.21,218.5,2.5,242.77l55.17-9Z" transform="translate(0.02 0)"/></g><g id="triangle36-53"><path class="cls-2" d="M57.92,234h0a.17.17,0,0,1-.13-.07l-9.65-15.57a.11.11,0,0,1,0-.13.14.14,0,0,1,.11-.09L77.05,213a.18.18,0,0,1,.17.07.15.15,0,0,1,0,.18L58.05,234A.15.15,0,0,1,57.92,234Zm-9.39-15.6L58,233.6l18.7-20.26Z" transform="translate(0.02 0)"/></g><g id="triangle36-54"><path class="cls-2" d="M139.43,129.15h0a.14.14,0,0,1-.12-.17h0l9-31.59a.15.15,0,0,1,.18-.11h0a.14.14,0,0,1,.12.17h0l-9,31.59A.18.18,0,0,1,139.43,129.15Z" transform="translate(0.02 0)"/></g><g id="triangle36-55"><path class="cls-2" d="M139.43,129.15h-.1a.15.15,0,0,1-.06-.16l9-31.59a.14.14,0,0,1,.08-.09.24.24,0,0,1,.12,0l38,10.37a.18.18,0,0,1,.12.13.15.15,0,0,1-.09.15l-47,21.17Zm9.16-31.55-8.91,31.12,46.37-20.9Z" transform="translate(0.02 0)"/></g><g id="triangle36-56"><path class="cls-2" d="M152.83,169.27a.16.16,0,0,1-.15-.11L139.27,129a.15.15,0,0,1,.06-.16.17.17,0,0,1,.19,0l55.19,35.73a.14.14,0,0,1,.06.16.15.15,0,0,1-.14.11l-41.78,4.39Zm-13.1-39.89L153,169l41.22-4.33Z" transform="translate(0.02 0)"/></g><g id="triangle36-57"><path class="cls-2" d="M194.61,164.88h-.09l-55.19-35.73a.17.17,0,0,1-.07-.13.15.15,0,0,1,.1-.12l47.06-21.22a.19.19,0,0,1,.15,0,.18.18,0,0,1,.09.12l8.12,56.94a.18.18,0,0,1-.08.15ZM139.75,129l54.65,35.39-8-56.4Z" transform="translate(0.02 0)"/></g><g id="triangle36-58"><path class="cls-2" d="M124.12,197.37a.21.21,0,0,1-.13-.05.13.13,0,0,1,0-.2h0L152.71,169a.22.22,0,0,1,.17-.05.14.14,0,0,1,.11.12l1.69,7.4a.14.14,0,0,1-.06.15l-30.4,20.7A.19.19,0,0,1,124.12,197.37Zm28.62-27.94L125.48,196.1l28.86-19.65Z" transform="translate(0.02 0)"/></g><g id="triangle36-59"><path class="cls-2" d="M124.12,197.37a.16.16,0,0,1-.15-.09.15.15,0,0,1,0-.18l30.4-20.7a.18.18,0,0,1,.2,0l19.18,13.09a.15.15,0,0,1,.06.16.14.14,0,0,1-.13.11l-49.59,7.6Zm30.4-20.67L124.76,197l48.54-7.45Z" transform="translate(0.02 0)"/></g><g id="triangle36-60"><path class="cls-2" d="M170.84,236.75h-.11L124,197.33a.15.15,0,0,1,0-.16.17.17,0,0,1,.13-.1l49.59-7.6a.15.15,0,0,1,.13,0,.14.14,0,0,1,.06.12l-2.86,47a.16.16,0,0,1-.11.13Zm-46.37-39.44,46.23,39,2.83-46.49Z" transform="translate(0.02 0)"/></g><g id="triangle36-61"><path class="cls-2" d="M321.31,157.23,264.4,189.7l18.38-62.94,38.62,14.79v-.32l-38.67-14.81a.17.17,0,0,0-.14,0,.16.16,0,0,0-.08.1L264,190a.13.13,0,0,0,.06.16h.18l57.09-32.57Z" transform="translate(0.02 0)"/></g><g id="triangle36-62"><path class="cls-2" d="M321.16,184.34l-56.34,5.47,56.49-32.22v-.36L264.05,189.9a.14.14,0,0,0-.07.18.15.15,0,0,0,.15.1h0l57-5.54Z" transform="translate(0.02 0)"/></g><g id="triangle36-63"><path class="cls-2" d="M321.4,141.23l-37.79-14.47,37.86,2v-.3l-38.79-2.07a.14.14,0,0,0-.17.1h0a.16.16,0,0,0,.09.18l38.8,14.85Z" transform="translate(0.02 0)"/></g><g id="triangle36-64"><path class="cls-2" d="M57.92,234a.16.16,0,0,1-.13-.06.15.15,0,0,1,0-.18L77,213a.15.15,0,0,1,.13,0l37.86-.12h0a.15.15,0,0,1,.06.29L58,234Zm19.24-20.75L58.47,233.5l55.62-20.36Z" transform="translate(0.02 0)"/></g><g id="triangle36-65"><path class="cls-2" d="M104,267.93h-.1L57.82,234a.13.13,0,0,1-.06-.14.17.17,0,0,1,.1-.12l57-20.87a.25.25,0,0,1,.17,0,.19.19,0,0,1,0,.15L104.19,267.8a.15.15,0,0,1-.1.12Zm-45.79-34,45.68,33.59,10.81-54.27Z" transform="translate(0.02 0)"/></g><g id="triangle36-66"><path class="cls-2" d="M77.08,213.26a.15.15,0,0,1-.16-.12A.16.16,0,0,1,77,213l47-15.89a.19.19,0,0,1,.18,0,.14.14,0,0,1,0,.17L115,213.05a.18.18,0,0,1-.15.08L77,213.25Zm46.69-15.77L78,213l36.84-.12Z" transform="translate(0.02 0)"/></g><g id="triangle36-67"><path class="cls-2" d="M104,267.93h-.1a.14.14,0,0,1-.06-.15L114.78,213a.15.15,0,0,1,.09-.1.17.17,0,0,1,.14,0l55.9,23.62a.14.14,0,0,1,.1.13.17.17,0,0,1-.09.14L104.11,268Zm11-54.72-10.82,54.3,66.22-30.9Z" transform="translate(0.02 0)"/></g><g id="triangle36-68"><path class="cls-2" d="M170.84,236.75h-.07l-55.9-23.62a.11.11,0,0,1-.08-.08.13.13,0,0,1,0-.12L124,197.15a.2.2,0,0,1,.12-.08.17.17,0,0,1,.14,0L171,236.49a.15.15,0,0,1,0,.2A.17.17,0,0,1,170.84,236.75Zm-55.67-23.83L170,236.07l-45.81-38.61Z" transform="translate(0.02 0)"/></g><g id="triangle36-69"><path class="cls-2" d="M321,215.33l-19.35-6.53,19.45-10.12v-.35L301.16,208.7a.12.12,0,0,0-.08.14.14.14,0,0,0,.1.13l19.8,6.68Z" transform="translate(0.02 0)"/></g><g id="triangle36-70"><path class="cls-2" d="M148.48,97.56a.15.15,0,0,1-.14-.07.13.13,0,0,1,0-.18l0,0,38-23a.16.16,0,0,1,.22,0,.13.13,0,0,1,0,.18l0,0-38,23A.18.18,0,0,1,148.48,97.56Z" transform="translate(0.02 0)"/></g><g id="triangle36-71"><path class="cls-2" d="M186.5,107.93h-.05l-38-10.38a.15.15,0,0,1-.12-.12.14.14,0,0,1,.08-.14l38-23a.17.17,0,0,1,.17,0,.13.13,0,0,1,.08.13v33.4a.12.12,0,0,1-.07.12A.14.14,0,0,1,186.5,107.93ZM148.86,97.36l37.47,10.22V74.66Z" transform="translate(0.02 0)"/></g><g id="triangle36-72"><path class="cls-2" d="M186.5,107.93h-.09a.13.13,0,0,1-.08-.13V74.4a.16.16,0,0,1,.08-.13.15.15,0,0,1,.16,0l37.73,18a.14.14,0,0,1,.09.13.15.15,0,0,1-.1.14l-37.73,15.34Zm.13-33.3v32.92l37.19-15.12Z" transform="translate(0.02 0)"/></g><g id="triangle36-73"><path class="cls-2" d="M224.23,92.59h-.08L186.39,74.51a.15.15,0,0,1-.08-.18l19.75-49.72a.19.19,0,0,1,.17-.1.16.16,0,0,1,.15.11l18,67.78a.17.17,0,0,1-.06.16A.16.16,0,0,1,224.23,92.59ZM186.67,74.31,224,92.15l-17.79-67Z" transform="translate(0.02 0)"/></g><g id="triangle36-74"><path class="cls-2" d="M320.87,236,284.6,258.2l16.71-49.06L320.89,232v-.49l-19.52-22.77a.15.15,0,0,0-.16,0,.17.17,0,0,0-.13.1l-16.93,49.74a.14.14,0,0,0,.05.16h.19l36.47-22.31Z" transform="translate(0.02 0)"/></g><g id="triangle36-75"><path class="cls-2" d="M320.69,266.6l-36-8.1,36.16-22.13V236l-36.66,22.43a.15.15,0,0,0-.07.15.14.14,0,0,0,.12.11l36.43,8.21Z" transform="translate(0.02 0)"/></g><g id="triangle36-76"><path class="cls-2" d="M320.89,231.5l-19.16-22.35,19.25,6.5v-.32l-19.68-6.64a.15.15,0,0,0-.19.05.15.15,0,0,0,0,.18L320.89,232Z" transform="translate(0.02 0)"/></g><path class="cls-3" d="M293.33.6a1.64,1.64,0,0,0-1.73,1.54,1.72,1.72,0,0,0,3.43,0A1.63,1.63,0,0,0,293.33.6Z" transform="translate(0.02 0)"/><path class="cls-3" d="M293.33.6A1.63,1.63,0,0,1,295,2.16a1.72,1.72,0,0,1-3.43,0A1.64,1.64,0,0,1,293.28.6h.05m0-.6a2.28,2.28,0,0,0-2.39,2.14,2.39,2.39,0,0,0,4.75,0A2.27,2.27,0,0,0,293.33,0Z" transform="translate(0.02 0)"/><path class="cls-3" d="M24.06,254.47a1,1,0,0,0-1.07.93v.07a1.07,1.07,0,0,0,2.12,0,1,1,0,0,0-1-1Z" transform="translate(0.02 0)"/><path class="cls-3" d="M24.06,254.47a1,1,0,0,1,1.05.95v.05a1.07,1.07,0,0,1-2.12,0,1,1,0,0,1,1-1h.07m0-.59A1.56,1.56,0,0,0,24,257a1.56,1.56,0,1,0,0-3.11Z" transform="translate(0.02 0)"/><path class="cls-3" d="M43.9,265.58a1.34,1.34,0,0,0-.33,2.66h.33a1.43,1.43,0,0,0,1.48-1.33,1.4,1.4,0,0,0-1.47-1.33Z" transform="translate(0.02 0)"/><path class="cls-3" d="M43.9,265.58a1.4,1.4,0,0,1,1.46,1.33,1.43,1.43,0,0,1-1.48,1.33,1.34,1.34,0,0,1-.33-2.66h.33m0-.6A1.93,1.93,0,1,0,46,266.92,2,2,0,0,0,43.92,265h0Z" transform="translate(0.02 0)"/><path class="cls-3" d="M314.14,108.11a1.16,1.16,0,0,0,.22,2.31,1.16,1.16,0,0,0,1.05-1.15A1.23,1.23,0,0,0,314.14,108.11Z" transform="translate(0.02 0)"/><path class="cls-3" d="M314.14,108.11a1.16,1.16,0,1,1-1.28,1.15,1.22,1.22,0,0,1,1.28-1.15m0-.6a1.76,1.76,0,1,0-.37,3.5h.37a1.76,1.76,0,1,0,.37-3.5A2.29,2.29,0,0,0,314.14,107.51Z" transform="translate(0.02 0)"/><ellipse class="cls-3" cx="229.83" cy="138.43" rx="2.18" ry="1.98"/><path class="cls-3" d="M229.82,136.46a2,2,0,1,1-2.19,2,2.08,2.08,0,0,1,2.16-2h0m0-.6a2.59,2.59,0,1,0,2.83,2.59A2.72,2.72,0,0,0,229.82,135.86Z" transform="translate(0.02 0)"/><path class="cls-3" d="M259.58,126.75a.93.93,0,1,0-1,.84h.09A.89.89,0,0,0,259.58,126.75Z" transform="translate(0.02 0)"/><path class="cls-3" d="M258.65,125.9a.88.88,0,0,1,.93.83v0a.89.89,0,0,1-.93.84.85.85,0,1,1-.18-1.69.54.54,0,0,1,.18,0m0-.6a1.53,1.53,0,0,0-1.6,1.44,1.6,1.6,0,1,0,1.75-1.43Z" transform="translate(0.02 0)"/><path class="cls-3" d="M282.55,108a2,2,0,1,0-2.13-2,2.06,2.06,0,0,0,2.12,2Z" transform="translate(0.02 0)"/><path class="cls-3" d="M282.58,104.07a1.92,1.92,0,1,1-.1,0h.1m0-.6a2.55,2.55,0,1,0,2.79,2.56A2.69,2.69,0,0,0,282.58,103.47Z" transform="translate(0.02 0)"/><path class="cls-3" d="M283.79,11a1.35,1.35,0,0,0-2.68,0,1.35,1.35,0,0,0,2.68,0Z" transform="translate(0.02 0)"/><path class="cls-3" d="M282.46,9.75A1.28,1.28,0,0,1,283.79,11v0a1.35,1.35,0,0,1-2.68,0,1.29,1.29,0,0,1,1.35-1.21m0-.59a1.92,1.92,0,0,0-2,1.8,2,2,0,0,0,4,0,1.91,1.91,0,0,0-2-1.82h0Z" transform="translate(0.02 0)"/><path class="cls-3" d="M185,184.8a1.77,1.77,0,1,0,1.93,1.77A1.87,1.87,0,0,0,185,184.8Z" transform="translate(0.02 0)"/><path class="cls-3" d="M185,184.8a1.77,1.77,0,1,1-1.95,1.75A1.86,1.86,0,0,1,185,184.8m0-.59a2.37,2.37,0,1,0,2.59,2.36A2.49,2.49,0,0,0,185,184.21Z" transform="translate(0.02 0)"/><path class="cls-3" d="M214.66,254.36a1.52,1.52,0,1,0,1.66,1.52,1.59,1.59,0,0,0-1.66-1.52Z" transform="translate(0.02 0)"/><path class="cls-3" d="M214.66,254.36a1.52,1.52,0,1,1,.49,3,1.35,1.35,0,0,1-.49,0,1.52,1.52,0,1,1-.49-3,1.35,1.35,0,0,1,.49,0m0-.59a2.12,2.12,0,1,0,2.32,2.11A2.22,2.22,0,0,0,214.66,253.77Z" transform="translate(0.02 0)"/><path class="cls-3" d="M235.18,260.51a2,2,0,1,0,2.15,2,2.07,2.07,0,0,0-2.14-2Z" transform="translate(0.02 0)"/><path class="cls-3" d="M235.18,260.51a2,2,0,0,1-.34,4,2,2,0,0,1-1.83-2,2.06,2.06,0,0,1,2.17-1.95m0-.59a2.57,2.57,0,1,0,2.81,2.56A2.7,2.7,0,0,0,235.18,259.92Z" transform="translate(0.02 0)"/><path class="cls-3" d="M244.91,223a1.1,1.1,0,1,0,.2,2.19,1.1,1.1,0,0,0,1-1.09,1.15,1.15,0,0,0-1.2-1.1Z" transform="translate(0.02 0)"/><path class="cls-3" d="M244.91,223a1.1,1.1,0,0,1-.22,2.19,1.11,1.11,0,0,1-1-1.1,1.15,1.15,0,0,1,1.21-1.09h0m0-.6a1.7,1.7,0,1,0,1.86,1.7,1.78,1.78,0,0,0-1.86-1.7Z" transform="translate(0.02 0)"/><path class="cls-3" d="M285.7,202.94a2.13,2.13,0,1,0,2.33,2.13A2.24,2.24,0,0,0,285.7,202.94Z" transform="translate(0.02 0)"/><path class="cls-3" d="M285.7,202.94a2.13,2.13,0,1,1-2.36,2.11,2.24,2.24,0,0,1,2.36-2.11m0-.6a2.73,2.73,0,1,0,3,2.73A2.88,2.88,0,0,0,285.7,202.34Z" transform="translate(0.02 0)"/><path class="cls-3" d="M1.63,242.19a.88.88,0,0,0-.19,1.75h.19a.93.93,0,0,0,1-.84v0a.91.91,0,0,0-.91-.89Z" transform="translate(0.02 0)"/><path class="cls-3" d="M1.63,242.19a.89.89,0,0,1,1,.79.28.28,0,0,1,0,.09.92.92,0,0,1-1,.87h0a.88.88,0,0,1-.19-1.75h.19m0-.6A1.48,1.48,0,0,0,0,242.89a1.47,1.47,0,0,0,1.3,1.64h.34A1.48,1.48,0,0,0,2,241.59Z" transform="translate(0.02 0)"/><path class="cls-3" d="M48.28,216.89A1.41,1.41,0,0,0,47,218.43a1.42,1.42,0,0,0,2.83-.12,1.48,1.48,0,0,0-1.54-1.42Z" transform="translate(0.02 0)"/><path class="cls-3" d="M48.28,216.89a1.42,1.42,0,0,1-.28,2.83,1.43,1.43,0,0,1-1.28-1.43,1.48,1.48,0,0,1,1.56-1.4h0m0-.6a2,2,0,1,0,2.2,2A2.13,2.13,0,0,0,48.28,216.29Z" transform="translate(0.02 0)"/><path class="cls-3" d="M139.43,128.15a.85.85,0,0,0,0,1.7h0a.91.91,0,0,0,1-.81v0a.89.89,0,0,0-.94-.85Z" transform="translate(0.02 0)"/><path class="cls-3" d="M139.43,128.15a.86.86,0,1,1,0,1.7h0a.85.85,0,0,1,0-1.7h0m0-.6A1.46,1.46,0,1,0,141,129a1.54,1.54,0,0,0-1.59-1.46Z" transform="translate(0.02 0)"/><path class="cls-3" d="M194.62,162.79a2,2,0,1,0,.28,4,2,2,0,0,0,1.86-2,2.05,2.05,0,0,0-2.1-2Z" transform="translate(0.02 0)"/><path class="cls-3" d="M194.62,162.79a2,2,0,1,1-2.15,1.93,2,2,0,0,1,2.15-1.93m0-.6a2.55,2.55,0,1,0,2.78,2.55A2.69,2.69,0,0,0,194.62,162.19Z" transform="translate(0.02 0)"/><path class="cls-3" d="M152.83,170.09a1,1,0,0,0,.49-1.94,1,1,0,0,0-.49,0,1,1,0,0,0-.49,1.94A1,1,0,0,0,152.83,170.09Z" transform="translate(0.02 0)"/><path class="cls-3" d="M152.84,168.15a1,1,0,0,1,.49,1.94,1,1,0,0,1-.49,0,1,1,0,0,1-.49-1.94,1,1,0,0,1,.49,0m0-.6a1.65,1.65,0,0,0-1.73,1.56,1.73,1.73,0,0,0,3.45,0,1.66,1.66,0,0,0-1.72-1.58Z" transform="translate(0.02 0)"/><path class="cls-3" d="M154.53,175.42a1.17,1.17,0,0,0-1.22,1.09,1.22,1.22,0,0,0,1.08,1.34,1.22,1.22,0,1,0,.26-2.42Z" transform="translate(0.02 0)"/><path class="cls-3" d="M154.53,175.42a1.1,1.1,0,1,1-1.22,1.09,1.17,1.17,0,0,1,1.22-1.09m0-.6a1.7,1.7,0,1,0,1.86,1.7,1.78,1.78,0,0,0-1.86-1.7Z" transform="translate(0.02 0)"/><path class="cls-3" d="M173.71,188.75a.86.86,0,1,0,.16,1.71.86.86,0,0,0,.78-.84A.91.91,0,0,0,173.71,188.75Z" transform="translate(0.02 0)"/><path class="cls-3" d="M173.71,188.75a.86.86,0,1,1-.86.86.87.87,0,0,1,.86-.86m0-.59a1.46,1.46,0,1,0-.24,2.91,1,1,0,0,0,.24,0,1.46,1.46,0,1,0,.24-2.91Z" transform="translate(0.02 0)"/><path class="cls-3" d="M264.14,188.54a1.5,1.5,0,1,0,1.64,1.5,1.57,1.57,0,0,0-1.64-1.5Z" transform="translate(0.02 0)"/><path class="cls-3" d="M264.14,188.54a1.5,1.5,0,1,1-1.65,1.48,1.57,1.57,0,0,1,1.65-1.48m0-.6a2.1,2.1,0,1,0,2.29,2.1A2.21,2.21,0,0,0,264.14,187.94Z" transform="translate(0.02 0)"/><path class="cls-3" d="M282.68,124.84a1.72,1.72,0,1,0,1.88,1.73A1.83,1.83,0,0,0,282.68,124.84Z" transform="translate(0.02 0)"/><path class="cls-3" d="M282.68,124.84a1.72,1.72,0,1,1-1.91,1.71,1.82,1.82,0,0,1,1.91-1.71m0-.59a2.32,2.32,0,1,0,2.53,2.32A2.43,2.43,0,0,0,282.68,124.25Z" transform="translate(0.02 0)"/><path class="cls-3" d="M57.93,232a1.87,1.87,0,0,0-.39,3.72h.39a1.87,1.87,0,0,0,.39-3.72Z" transform="translate(0.02 0)"/><path class="cls-3" d="M57.93,232a1.87,1.87,0,1,1-2.06,1.85A2,2,0,0,1,57.93,232m0-.59a2.47,2.47,0,1,0,2.69,2.47,2.58,2.58,0,0,0-2.69-2.47Z" transform="translate(0.02 0)"/><path class="cls-3" d="M78.26,213.12a1.19,1.19,0,1,0-1.31,1h.12a1.12,1.12,0,0,0,1.19-1.05Z" transform="translate(0.02 0)"/><path class="cls-3" d="M77.09,212a1.08,1.08,0,0,1-.22,2.15,1.08,1.08,0,0,1-1-1.08A1.12,1.12,0,0,1,77.07,212h0m0-.6a1.68,1.68,0,1,0,1.83,1.68A1.77,1.77,0,0,0,77.09,211.4Z" transform="translate(0.02 0)"/><path class="cls-3" d="M104,266.1a1.69,1.69,0,0,0-.37,3.36,2.29,2.29,0,0,0,.37,0,1.69,1.69,0,0,0,.37-3.36A2.29,2.29,0,0,0,104,266.1Z" transform="translate(0.02 0)"/><path class="cls-3" d="M104,266.1a1.69,1.69,0,1,1-1.86,1.67A1.77,1.77,0,0,1,104,266.1m0-.6a2.29,2.29,0,1,0,2.5,2.29A2.41,2.41,0,0,0,104,265.5Z" transform="translate(0.02 0)"/><path class="cls-3" d="M115,211.23a1.77,1.77,0,1,0,1.93,1.77A1.87,1.87,0,0,0,115,211.23Z" transform="translate(0.02 0)"/><path class="cls-3" d="M115,211.23a1.77,1.77,0,1,1-2,1.75,1.86,1.86,0,0,1,2-1.75h0m0-.59a2.36,2.36,0,1,0,2.59,2.36A2.49,2.49,0,0,0,115,210.64Z" transform="translate(0.02 0)"/><path class="cls-3" d="M170.85,235.07a1.54,1.54,0,1,0,1.68,1.54,1.6,1.6,0,0,0-1.66-1.54Z" transform="translate(0.02 0)"/><path class="cls-3" d="M170.85,235.07a1.62,1.62,0,0,1,1.69,1.54,1.7,1.7,0,1,1-1.85-1.53h.16m0-.6a2.14,2.14,0,1,0-.41,4.26,2.8,2.8,0,0,0,.41,0,2.14,2.14,0,1,0,.41-4.26Z" transform="translate(0.02 0)"/><path class="cls-3" d="M124.12,196.09a1.2,1.2,0,0,0-1.25,1.12,1.25,1.25,0,1,0,1.37-1.11Z" transform="translate(0.02 0)"/><path class="cls-3" d="M124.12,196.09a1.13,1.13,0,1,1-1.25,1.12,1.2,1.2,0,0,1,1.25-1.12m0-.6a1.73,1.73,0,1,0,1.89,1.74A1.83,1.83,0,0,0,124.12,195.49Z" transform="translate(0.02 0)"/><path class="cls-3" d="M148.48,96.06A1.36,1.36,0,1,0,150,97.42a1.43,1.43,0,0,0-1.5-1.36Z" transform="translate(0.02 0)"/><path class="cls-3" d="M148.48,96.06A1.36,1.36,0,1,1,147,97.4a1.42,1.42,0,0,1,1.49-1.34m0-.59a1.95,1.95,0,1,0,2.13,2,2.06,2.06,0,0,0-2.12-2Z" transform="translate(0.02 0)"/><path class="cls-3" d="M186.5,106.78a1,1,0,1,0,1.1,1A1.06,1.06,0,0,0,186.5,106.78Z" transform="translate(0.02 0)"/><path class="cls-3" d="M186.5,106.78a1,1,0,1,1-1.11,1,1.07,1.07,0,0,1,1.11-1m0-.59a1.6,1.6,0,1,0,1.76,1.6A1.69,1.69,0,0,0,186.5,106.19Z" transform="translate(0.02 0)"/><path class="cls-3" d="M186.46,76.53a2.16,2.16,0,1,0-2.37-2.16,2.26,2.26,0,0,0,2.36,2.16Z" transform="translate(0.02 0)"/><path class="cls-3" d="M186.48,72.23a2.16,2.16,0,1,1-2.39,2.14,2.25,2.25,0,0,1,2.37-2.14h0m0-.6a2.76,2.76,0,1,0,3,2.76A2.92,2.92,0,0,0,186.48,71.63Z" transform="translate(0.02 0)"/><path class="cls-3" d="M224.23,91.34a1.11,1.11,0,1,0,1.21,1.1A1.17,1.17,0,0,0,224.23,91.34Z" transform="translate(0.02 0)"/><path class="cls-3" d="M224.23,91.34A1.11,1.11,0,1,1,223,92.43a1.16,1.16,0,0,1,1.22-1.09m0-.6a1.8,1.8,0,0,0-1.88,1.69,1.88,1.88,0,0,0,3.74,0,1.81,1.81,0,0,0-1.86-1.71Z" transform="translate(0.02 0)"/><path class="cls-3" d="M206.23,23.44a1.23,1.23,0,1,0-.31,2.44,1.61,1.61,0,0,0,.31,0,1.23,1.23,0,1,0,.31-2.44A1.61,1.61,0,0,0,206.23,23.44Z" transform="translate(0.02 0)"/><path class="cls-3" d="M206.23,23.44a1.23,1.23,0,1,1-1.36,1.21,1.29,1.29,0,0,1,1.36-1.21m0-.6a1.83,1.83,0,1,0,2,1.83A1.93,1.93,0,0,0,206.23,22.84Z" transform="translate(0.02 0)"/><path class="cls-3" d="M284.31,257.42a1.15,1.15,0,1,0,1.25,1.15,1.2,1.2,0,0,0-1.25-1.15Z" transform="translate(0.02 0)"/><path class="cls-3" d="M284.31,257.42a1.15,1.15,0,1,1-1.27,1.13,1.2,1.2,0,0,1,1.27-1.13h0m0-.6a1.75,1.75,0,1,0,1.91,1.75,1.83,1.83,0,0,0-1.91-1.75Z" transform="translate(0.02 0)"/><ellipse class="cls-3" cx="301.26" cy="208.83" rx="1.57" ry="1.42"/><path class="cls-3" d="M301.25,207.41a1.49,1.49,0,0,1,1.56,1.42h0a1.58,1.58,0,1,1-1.73-1.41h.17m0-.6a2,2,0,1,0,2.22,2A2.12,2.12,0,0,0,301.25,206.81Z" transform="translate(0.02 0)"/></g></g></svg>