<svg xmlns="http://www.w3.org/2000/svg" xmlns:xlink="http://www.w3.org/1999/xlink" aria-hidden="true" focusable="false" width="1em" height="1em" style="-ms-transform: rotate(360deg); -webkit-transform: rotate(360deg); transform: rotate(360deg);" preserveAspectRatio="xMidYMid meet" viewBox="0 0 24 24"><path d="M12 20c-4.42 0-8-3.58-8-8s3.58-8 8-8s8 3.58 8 8s-3.58 8-8 8zm-3-6v1.5h6V14H9zm6.5-3a1.5 1.5 0 1 0 0-3a1.5 1.5 0 0 0 0 3zm-7 0a1.5 1.5 0 1 0 0-3a1.5 1.5 0 0 0 0 3z" opacity="1" fill="#fad201"/><path d="M11.99 2C6.47 2 2 6.48 2 12s4.47 10 9.99 10C17.52 22 22 17.52 22 12S17.52 2 11.99 2zM12 20c-4.42 0-8-3.58-8-8s3.58-8 8-8s8 3.58 8 8s-3.58 8-8 8zm-3-6v1.5h6V14H9zm6.5-3a1.5 1.5 0 1 0 0-3a1.5 1.5 0 0 0 0 3zm-7 0a1.5 1.5 0 1 0 0-3a1.5 1.5 0 0 0 0 3z" fill="#000000"/></svg>